<svg width="359" height="359" viewBox="0 0 359 359" fill="none" xmlns="http://www.w3.org/2000/svg">
<path d="M335.227 227.032H217.554V158.936H335.227V227.032ZM218.272 226.314H334.509V159.654H218.272V226.314Z" fill="#E0E0E0"/>
<path d="M310.951 195.246H233.314V197.522H310.951V195.246Z" fill="#F0F0F0"/>
<path d="M316.3 203.732H233.314V206.217H316.3V203.732Z" fill="#F0F0F0"/>
<path d="M316.3 212.32H233.314V214.804H316.3V212.32Z" fill="#F0F0F0"/>
<path d="M260.447 182.918H233.314V188.827H260.447V182.918Z" fill="#F0F0F0"/>
<path d="M334.868 159.295H217.935V170.137H334.868V159.295Z" fill="#E0E0E0"/>
<path d="M325.871 168.515C325.721 168.371 327.228 166.554 329.232 164.458C331.235 162.361 332.994 160.775 333.138 160.911C333.281 161.047 331.781 162.871 329.777 164.975C327.774 167.079 326.015 168.658 325.871 168.515Z" fill="white"/>
<path d="M333.152 168.515C333.008 168.658 331.256 167.079 329.246 164.975C327.236 162.871 325.735 161.055 325.886 160.911C326.037 160.767 327.781 162.347 329.792 164.458C331.802 166.569 333.288 168.371 333.152 168.515Z" fill="white"/>
<path d="M190.428 24.4479H73.4945V91.8322H190.428V24.4479Z" fill="#E6E6E6"/>
<path d="M166.519 60.4053H88.8812V62.6814H166.519V60.4053Z" fill="#F0F0F0"/>
<path d="M171.868 68.8921H88.8812V71.3763H171.868V68.8921Z" fill="#F0F0F0"/>
<path d="M171.868 77.4793H88.8812V79.9636H171.868V77.4793Z" fill="#F0F0F0"/>
<path d="M116.014 48.0772H88.8812V53.9864H116.014V48.0772Z" fill="#F0F0F0"/>
<path d="M190.428 24.4479H73.4945V35.2897H190.428V24.4479Z" fill="#E0E0E0"/>
<path d="M181.037 33.6167C180.886 33.4803 182.394 31.6566 184.397 29.56C186.4 27.4635 188.159 25.8767 188.303 26.0203C188.446 26.1639 186.946 27.9804 184.942 30.077C182.939 32.1735 181.18 33.746 181.037 33.6167Z" fill="white"/>
<path d="M188.303 33.6167C188.159 33.7603 186.407 32.1807 184.397 30.077C182.386 27.9733 180.886 26.1639 181.037 26.0203C181.187 25.8767 182.932 27.4563 184.942 29.56C186.953 31.6638 188.454 33.4803 188.303 33.6167Z" fill="white"/>
<path d="M146.142 149.624H28.4902V81.5217H146.142V149.624ZM29.2082 148.906H145.424V82.2397H29.2082V148.906Z" fill="#E0E0E0"/>
<path d="M121.873 117.838H44.236V120.114H121.873V117.838Z" fill="#F0F0F0"/>
<path d="M127.222 126.325H44.236V128.809H127.222V126.325Z" fill="#F0F0F0"/>
<path d="M127.222 134.912H44.236V137.396H127.222V134.912Z" fill="#F0F0F0"/>
<path d="M71.3692 105.51H44.236V111.419H71.3692V105.51Z" fill="#F0F0F0"/>
<path d="M145.783 81.8807H28.8492V92.7225H145.783V81.8807Z" fill="#E0E0E0"/>
<path d="M281.923 165.226H143.851V288.837H281.923V165.226Z" fill="#E6E6E6"/>
<path d="M150.794 126.289H42.6348V238.663H150.794V126.289Z" fill="#F0F0F0"/>
<path d="M150.794 126.289H42.6348V138.531H150.794V126.289Z" fill="#E0E0E0"/>
<path d="M51.5668 132.284C51.5471 132.728 51.3975 133.157 51.1365 133.516C50.8755 133.876 50.5147 134.151 50.0988 134.307C49.6828 134.464 49.2301 134.495 48.7968 134.396C48.3635 134.298 47.9687 134.074 47.6614 133.753C47.3541 133.432 47.1477 133.028 47.068 132.591C46.9883 132.154 47.0387 131.703 47.213 131.294C47.3873 130.885 47.6778 130.537 48.0484 130.291C48.4191 130.046 48.8535 129.915 49.2979 129.915C49.9124 129.93 50.4959 130.188 50.9211 130.632C51.3462 131.076 51.5783 131.67 51.5668 132.284Z" fill="white"/>
<path d="M60.7787 132.284C60.7604 132.73 60.6113 133.161 60.3501 133.523C60.0888 133.885 59.7268 134.162 59.3093 134.32C58.8917 134.478 58.4369 134.509 58.0015 134.411C57.5662 134.312 57.1694 134.088 56.8607 133.765C56.5519 133.443 56.3448 133.037 56.2651 132.597C56.1854 132.158 56.2366 131.705 56.4124 131.295C56.5881 130.884 56.8807 130.535 57.2536 130.289C57.6266 130.044 58.0634 129.914 58.5098 129.915C59.1243 129.93 59.7079 130.188 60.133 130.632C60.5582 131.076 60.7903 131.67 60.7787 132.284Z" fill="white"/>
<path d="M69.9906 132.284C69.9723 132.73 69.8232 133.161 69.5619 133.523C69.3007 133.885 68.9387 134.162 68.5211 134.32C68.1036 134.478 67.6488 134.509 67.2134 134.411C66.778 134.312 66.3813 134.088 66.0726 133.765C65.7638 133.443 65.5567 133.037 65.477 132.597C65.3973 132.158 65.4485 131.705 65.6243 131.295C65.8 130.884 66.0926 130.535 66.4655 130.289C66.8385 130.044 67.2753 129.914 67.7217 129.915C68.3362 129.93 68.9198 130.188 69.3449 130.632C69.77 131.076 70.0022 131.67 69.9906 132.284Z" fill="white"/>
<path d="M319.783 49.025H181.711V186.637H319.783V49.025Z" fill="#F0F0F0"/>
<path d="M319.783 49.025H181.711V65.1441H319.783V49.025Z" fill="#E0E0E0"/>
<path d="M193.472 56.923C193.447 57.509 193.25 58.0747 192.906 58.5497C192.562 59.0248 192.086 59.3884 191.537 59.5953C190.988 59.8023 190.391 59.8434 189.819 59.7137C189.247 59.584 188.726 59.2891 188.32 58.8657C187.914 58.4423 187.641 57.909 187.536 57.332C187.43 56.755 187.497 56.1597 187.727 55.6201C187.956 55.0805 188.34 54.6203 188.829 54.2967C189.318 53.9731 189.892 53.8003 190.478 53.7997C191.289 53.8186 192.059 54.1578 192.62 54.7431C193.181 55.3285 193.488 56.1123 193.472 56.923Z" fill="white"/>
<path d="M204.723 54.8121C205.121 55.2444 205.383 55.7842 205.477 56.3643C205.57 56.9445 205.491 57.5393 205.249 58.0747C205.006 58.61 204.612 59.0622 204.114 59.375C203.617 59.6878 203.038 59.8472 202.451 59.8335C201.864 59.8198 201.293 59.6335 200.811 59.2979C200.328 58.9623 199.956 58.4921 199.738 57.9461C199.521 57.4 199.47 56.8022 199.59 56.227C199.711 55.6518 199.998 55.1248 200.415 54.7116C201.001 54.1547 201.783 53.8526 202.59 53.8715C203.398 53.8903 204.165 54.2286 204.723 54.8121Z" fill="white"/>
<path d="M217.726 56.923C217.701 57.509 217.504 58.0747 217.16 58.5497C216.816 59.0248 216.34 59.3884 215.791 59.5953C215.242 59.8023 214.645 59.8434 214.073 59.7137C213.501 59.584 212.98 59.2891 212.574 58.8657C212.168 58.4423 211.895 57.909 211.79 57.332C211.684 56.755 211.751 56.1597 211.981 55.6201C212.21 55.0805 212.594 54.6203 213.083 54.2967C213.572 53.9731 214.146 53.8003 214.732 53.7997C215.543 53.8186 216.313 54.1578 216.874 54.7431C217.435 55.3285 217.742 56.1123 217.726 56.923Z" fill="white"/>
<path d="M289.957 325.347C289.957 325.448 240.099 325.534 178.617 325.534C117.135 325.534 67.2551 325.448 67.2551 325.347C67.2551 325.247 117.106 325.161 178.617 325.161C240.128 325.161 289.957 325.254 289.957 325.347Z" fill="#263238"/>
<path d="M241.377 237.45C230.284 229.703 227.771 215.321 228.209 202.39C228.281 200.236 228.044 197.953 229.071 196.064C230.097 194.176 232.496 192.876 234.427 193.781C236.028 194.535 236.725 196.402 237.622 197.945C238.82 200.002 240.575 201.677 242.684 202.778C244.055 203.496 245.757 203.926 247.114 203.18C248.981 202.153 249.196 199.59 249.182 197.436C249.182 193.429 249.158 189.428 249.11 185.431C248.981 183.284 249.199 181.132 249.756 179.055C250.424 177.016 251.91 175.127 253.942 174.553C255.974 173.979 258.509 175.163 258.968 177.26C259.047 178.148 259.069 179.04 259.033 179.931C259.09 180.828 259.507 181.812 260.347 182.085C261.187 182.358 262.063 181.733 262.709 181.101C264.92 178.947 266.428 176.14 267.828 173.368C269.228 170.597 270.6 167.746 272.61 165.384C274.621 163.022 277.399 161.148 280.508 160.968C283.617 160.789 286.855 162.699 287.631 165.714C288.406 168.73 286.647 171.81 284.759 174.259C281.909 177.893 278.55 181.097 274.786 183.772C274.051 184.173 273.464 184.8 273.113 185.56C272.646 186.996 274.003 188.432 275.418 188.884C277.019 189.416 278.756 189.25 280.444 189.451C282.131 189.653 283.926 190.385 284.565 191.964C285.441 194.162 283.603 196.459 281.801 197.967C278.182 200.983 274.073 203.355 269.652 204.982C268.072 205.556 266.414 206.066 265.136 207.172C263.858 208.277 263.097 210.209 263.865 211.724C264.633 213.239 266.608 213.72 268.266 213.411C269.925 213.102 271.397 212.212 272.976 211.616C275.927 210.503 279.733 210.704 281.592 213.253C282.169 214.131 282.533 215.131 282.658 216.174C282.782 217.216 282.663 218.274 282.31 219.263C281.592 221.231 280.486 223.035 279.058 224.569C274.355 230.187 268.245 234.457 261.352 236.94C254.509 239.309 248.17 239.956 241.37 237.464" fill="#FD7401"/>
<path d="M284.472 162.742C284.472 162.742 284.407 162.814 284.263 162.943L283.624 163.51C283.064 164.013 282.239 164.745 281.198 165.714C278.246 168.455 275.505 171.414 272.998 174.567C271.397 176.556 269.738 178.811 267.972 181.259C266.206 183.707 264.382 186.35 262.573 189.157C260.644 192.118 258.877 195.181 257.281 198.333C256.448 199.977 255.716 201.693 254.962 203.445L252.736 208.794C249.802 215.532 247.247 222.429 245.082 229.451C243.339 235.197 242.137 241.094 241.492 247.064C241.075 251.093 241.007 255.15 241.291 259.191C241.406 260.627 241.514 261.725 241.614 262.472C241.657 262.831 241.686 263.118 241.715 263.326V263.621C241.684 263.527 241.662 263.431 241.65 263.334C241.614 263.125 241.571 262.845 241.514 262.486C241.384 261.768 241.248 260.634 241.119 259.198C240.772 255.15 240.796 251.079 241.191 247.035C241.795 241.04 242.971 235.116 244.702 229.344C246.848 222.301 249.396 215.387 252.334 208.636L254.617 203.309C255.371 201.564 256.111 199.834 256.951 198.182C258.558 195.02 260.339 191.95 262.285 188.985C264.124 186.113 265.976 183.514 267.721 181.087C269.465 178.66 271.153 176.391 272.747 174.409C275.279 171.265 278.057 168.326 281.054 165.621C282.117 164.666 282.964 163.948 283.538 163.467L284.206 162.929C284.288 162.857 284.377 162.795 284.472 162.742Z" fill="#263238"/>
<path d="M257.044 198.168C256.943 197.872 256.873 197.567 256.836 197.256C256.721 196.66 256.592 195.82 256.441 194.729C256.132 192.575 255.816 189.624 255.479 186.357C255.141 183.09 254.761 180.132 254.445 177.999C254.28 176.937 254.136 176.082 254.036 175.486C253.957 175.181 253.916 174.868 253.914 174.553C254.037 174.841 254.126 175.142 254.179 175.45C254.337 176.039 254.517 176.886 254.718 177.956C255.127 180.11 255.529 183.04 255.866 186.314C256.204 189.588 256.491 192.46 256.714 194.693C256.821 195.698 256.915 196.553 256.987 197.235C257.042 197.542 257.062 197.856 257.044 198.168Z" fill="#263238"/>
<path d="M284.673 193.013C284.323 193.089 283.967 193.132 283.61 193.142C282.892 193.207 281.872 193.293 280.609 193.436C278.081 193.709 274.606 194.212 270.794 194.93C266.981 195.648 263.556 196.459 261.094 197.084C259.866 197.4 258.875 197.687 258.222 197.881C257.873 198.005 257.512 198.091 257.145 198.139C257.476 197.972 257.822 197.835 258.178 197.73C258.853 197.493 259.83 197.163 261.05 196.811C263.499 196.093 266.924 195.239 270.751 194.506C273.992 193.886 277.263 193.431 280.551 193.142C281.822 193.034 282.849 192.991 283.567 192.977C283.936 192.952 284.306 192.964 284.673 193.013Z" fill="#263238"/>
<path d="M245.053 228.841C244.977 228.737 244.914 228.624 244.867 228.504L244.393 227.505C243.984 226.637 243.431 225.351 242.77 223.779C241.435 220.62 239.733 216.197 237.924 211.286C236.114 206.375 234.449 201.952 233.185 198.757C232.567 197.206 232.058 195.935 231.677 194.987L231.275 193.961C231.219 193.842 231.181 193.716 231.16 193.587C231.237 193.691 231.299 193.805 231.347 193.925L231.821 194.923C232.223 195.791 232.783 197.077 233.443 198.649C234.779 201.808 236.481 206.231 238.29 211.142C240.099 216.053 241.765 220.476 243.029 223.671C243.646 225.222 244.156 226.493 244.529 227.441C244.694 227.85 244.831 228.159 244.939 228.468C244.994 228.586 245.033 228.712 245.053 228.841Z" fill="#263238"/>
<path d="M281.729 217.016C281.614 217.081 281.491 217.132 281.363 217.166L280.3 217.525L276.373 218.796C273.055 219.873 268.475 221.41 263.449 223.104C258.423 224.799 253.82 226.306 250.482 227.312C248.816 227.821 247.459 228.209 246.518 228.468L245.434 228.748C245.308 228.788 245.178 228.814 245.046 228.827C245.161 228.761 245.284 228.71 245.412 228.676L246.475 228.317L250.403 227.046C253.72 225.969 258.301 224.432 263.327 222.738C268.353 221.043 272.948 219.536 276.286 218.53C277.959 218.021 279.309 217.633 280.257 217.375L281.341 217.094C281.467 217.054 281.597 217.028 281.729 217.016Z" fill="#263238"/>
<path d="M266.766 42.8503L263.068 44.1714L261.481 39.3392C258.566 30.4289 249.275 25.6972 240.738 28.7057C232.201 31.7141 227.656 41.4861 230.571 50.3964L232.158 55.2286L228.446 56.5569C227.031 57.1059 225.881 58.1793 225.237 59.5539C224.592 60.9285 224.502 62.4987 224.985 63.9379L235.274 95.3791C235.488 96.0916 235.842 96.7539 236.317 97.3266C236.792 97.8994 237.376 98.3709 238.037 98.7131C238.697 99.0554 239.42 99.2614 240.161 99.319C240.903 99.3765 241.648 99.2844 242.354 99.0481L280.673 85.3415C282.108 84.7934 283.273 83.7105 283.925 82.3206C284.578 80.9306 284.665 79.3419 284.17 77.8887L273.874 46.4474C273.655 45.7369 273.295 45.0779 272.815 44.5095C272.336 43.9412 271.747 43.4753 271.084 43.1396C270.42 42.8039 269.696 42.6052 268.954 42.5555C268.212 42.5058 267.468 42.606 266.766 42.8503ZM237.557 47.8763C236.771 45.5594 236.913 43.0283 237.951 40.8132C238.99 38.5981 240.845 36.8708 243.129 35.9934C244.257 35.6075 245.451 35.4528 246.639 35.5384C247.828 35.624 248.988 35.9482 250.048 36.4917C251.109 37.0351 252.05 37.7867 252.814 38.7015C253.578 39.6163 254.149 40.6757 254.495 41.8163L256.075 46.6485L239.137 52.7084L237.557 47.8763ZM259.097 75.7777L261.725 83.805C261.774 83.9659 261.758 84.1393 261.682 84.289C261.606 84.4388 261.475 84.5534 261.316 84.6091L257.633 85.9231C257.486 85.9637 257.33 85.946 257.196 85.8738C257.062 85.8015 256.961 85.6802 256.915 85.5354L254.265 77.544C252.804 77.4644 251.403 76.9404 250.248 76.0422C249.093 75.144 248.24 73.9144 247.803 72.518C247.179 70.672 247.293 68.656 248.121 66.892C248.95 65.1281 250.428 63.753 252.248 63.0548C253.146 62.7479 254.097 62.6249 255.044 62.6933C255.991 62.7617 256.914 63.02 257.759 63.4528C258.604 63.8857 259.353 64.4841 259.962 65.2126C260.57 65.9411 261.026 66.7847 261.302 67.6931C261.764 69.1115 261.802 70.6339 261.412 72.0737C261.021 73.5135 260.22 74.8083 259.105 75.7993L259.097 75.7777Z" fill="#FD7401"/>
<path d="M262.903 44.0852C262.903 44.1857 256.046 46.7634 247.516 49.8292C238.986 52.8951 232.029 55.3578 231.993 55.286C231.957 55.2142 238.85 52.6151 247.387 49.542C255.924 46.469 262.867 43.9919 262.903 44.0852Z" fill="#263238"/>
<path d="M271.045 45.4063C271.077 45.4687 271.103 45.5335 271.124 45.6002C271.181 45.7438 271.246 45.9305 271.332 46.1602C271.519 46.6844 271.777 47.4096 272.1 48.3142L274.858 56.3415C276.006 59.7448 277.378 63.78 278.9 68.2603C279.618 70.5076 280.465 72.8483 281.255 75.311C281.678 76.5801 281.86 77.9169 281.793 79.2529C281.733 79.9477 281.535 80.6236 281.212 81.2417C280.867 81.8578 280.406 82.4015 279.855 82.8429C278.746 83.6526 277.514 84.2803 276.207 84.7025L272.51 86.0308L265.509 88.5366L253.655 92.7584L245.649 95.573L243.495 96.291L242.921 96.4777C242.859 96.505 242.794 96.522 242.727 96.5279C242.727 96.5279 242.784 96.5279 242.907 96.4418L243.467 96.2192L245.621 95.4079L253.583 92.4784L265.416 88.1704L272.402 85.6431L276.1 84.3076C277.369 83.9026 278.565 83.2939 279.639 82.5054C280.152 82.0958 280.581 81.5912 280.903 81.0191C281.207 80.4475 281.39 79.8194 281.442 79.1739C281.508 77.8866 281.332 76.5984 280.925 75.3757C280.149 72.9345 279.331 70.5722 278.591 68.3249C277.098 63.8374 275.719 59.7879 274.628 56.3846C273.536 52.9812 272.617 50.2457 271.986 48.3214C271.684 47.3808 271.454 46.6485 271.268 46.1172L271.095 45.5428C271.074 45.4993 271.057 45.4535 271.045 45.4063Z" fill="#263238"/>
<path d="M250.826 35.5051C250.826 35.5051 250.445 35.3184 249.742 35.0312C248.739 34.6459 247.678 34.4323 246.604 34.3994C245.012 34.3448 243.428 34.644 241.966 35.2754C240.188 36.0615 238.667 37.3332 237.579 38.9443C236.483 40.5509 235.896 42.4494 235.892 44.394C235.907 45.9877 236.148 47.5712 236.61 49.0969C236.983 50.4036 237.371 51.4447 237.629 52.1699C237.782 52.5382 237.906 52.9174 238.003 53.3043C237.799 52.9599 237.628 52.5969 237.493 52.2202C237.198 51.5022 236.775 50.4826 236.358 49.1687C235.847 47.627 235.569 46.0177 235.533 44.394C235.513 42.376 236.115 40.4008 237.256 38.7361C238.382 37.0661 239.965 35.7552 241.815 34.9594C243.323 34.3246 244.957 34.0446 246.59 34.1409C247.687 34.1968 248.765 34.4523 249.771 34.8948C250.039 35.0189 250.299 35.1629 250.546 35.3256C250.648 35.3705 250.743 35.4311 250.826 35.5051Z" fill="#263238"/>
<path d="M251.156 63.6005C251.271 63.531 251.391 63.471 251.515 63.421C251.875 63.2588 252.247 63.1267 252.628 63.0261C253.233 62.8474 253.858 62.7414 254.488 62.7101C255.345 62.6641 256.203 62.7936 257.008 63.0907C258.846 63.7369 260.533 65.6109 261.366 68.1167C261.766 69.4614 261.766 70.8933 261.366 72.238C260.923 73.6975 260.13 75.0263 259.054 76.108L259.097 75.9142C260.052 78.5349 261.094 81.3781 262.171 84.3435L262.235 84.523L262.056 84.5876L260.411 85.1333L256.821 86.3323L256.642 86.3898L256.584 86.2103C255.601 83.2378 254.524 80.4663 253.712 77.7451L253.87 77.8671C252.467 77.7505 251.128 77.2237 250.022 76.3521C249.021 75.5811 248.2 74.601 247.617 73.4801C247.09 72.4862 246.828 71.3736 246.856 70.2491C246.889 69.0999 247.176 67.9723 247.696 66.947C248.216 65.9217 248.956 65.0241 249.864 64.3185C250.238 64.0152 250.657 63.7728 251.106 63.6005C250.701 63.8411 250.308 64.1023 249.929 64.3831C248.932 65.2266 248.168 66.3119 247.71 67.5351C247.317 68.4575 247.133 69.4554 247.172 70.4572C247.21 71.459 247.47 72.4398 247.933 73.3294C248.506 74.4076 249.307 75.3484 250.28 76.0865C251.336 76.9149 252.612 77.4143 253.949 77.5225H254.071L254.107 77.6302C254.897 80.3011 255.981 83.0942 256.979 86.081L256.742 85.9662L260.332 84.7671L261.969 84.2142L261.855 84.4584C260.785 81.493 259.751 78.6426 258.803 76.0219V75.9142L258.889 75.828C259.933 74.7911 260.711 73.5178 261.158 72.1159C261.539 70.8296 261.539 69.4605 261.158 68.1741C260.376 65.7616 258.76 63.9307 257.008 63.2845C256.233 62.9855 255.405 62.8463 254.574 62.8753C253.954 62.8895 253.337 62.9738 252.736 63.1266C251.666 63.3922 251.164 63.6364 251.156 63.6005Z" fill="#263238"/>
<path d="M228.963 270.916L157.242 270.585C153.1 270.563 149.137 268.897 146.222 265.954C143.308 263.011 141.68 259.032 141.697 254.89L142.458 75.0956C142.467 73.0436 142.88 71.0134 143.673 69.121C144.467 67.2286 145.625 65.5112 147.083 64.0669C148.541 62.6226 150.269 61.4797 152.168 60.7036C154.068 59.9275 156.102 59.5334 158.154 59.5437L229.868 59.874C234.01 59.8949 237.974 61.5589 240.89 64.5004C243.806 67.4419 245.435 71.4205 245.42 75.5623L244.659 255.35C244.65 257.402 244.237 259.433 243.444 261.326C242.651 263.219 241.492 264.938 240.035 266.383C238.577 267.829 236.849 268.973 234.95 269.751C233.05 270.528 231.016 270.924 228.963 270.916Z" fill="#455A64"/>
<path d="M229.76 66.056H215.86C215.406 66.0644 214.959 66.1621 214.543 66.3434C214.127 66.5248 213.751 66.7863 213.436 67.113C213.122 67.4397 212.874 67.8253 212.709 68.2475C212.543 68.6698 212.462 69.1206 212.471 69.5742V72.0944C212.479 72.5476 212.398 72.998 212.232 73.4199C212.067 73.8418 211.819 74.2268 211.504 74.5529C211.19 74.8791 210.814 75.1399 210.398 75.3205C209.982 75.5011 209.535 75.5979 209.082 75.6054L181.984 75.4833C181.068 75.4589 180.198 75.0716 179.567 74.4066C178.935 73.7416 178.594 72.8531 178.617 71.9364V69.4162C178.64 68.5007 178.299 67.6133 177.67 66.9485C177.04 66.2837 176.172 65.8956 175.257 65.8693H170.367L158.197 65.8119C155.302 65.7946 152.519 66.9251 150.456 68.9558C148.393 70.9865 147.218 73.7519 147.19 76.6465L146.472 252.14C146.465 253.576 146.742 254.999 147.285 256.329C147.829 257.658 148.629 258.867 149.639 259.887C150.65 260.907 151.852 261.718 153.176 262.274C154.5 262.829 155.921 263.119 157.357 263.125L228.927 263.456C230.364 263.462 231.788 263.186 233.118 262.642C234.449 262.098 235.659 261.298 236.679 260.286C237.7 259.275 238.512 258.072 239.068 256.747C239.624 255.422 239.913 254.001 239.92 252.564L240.638 77.0701C240.655 74.1673 239.519 71.3765 237.479 69.3112C235.439 67.2458 232.663 66.075 229.76 66.056Z" fill="white"/>
<path d="M220.132 240.042L166.913 239.812C166.361 239.812 165.915 239.209 165.923 238.477L165.98 224.555C165.98 223.837 166.432 223.219 166.985 223.219L220.203 223.463C220.51 223.516 220.784 223.685 220.968 223.936C221.153 224.186 221.234 224.497 221.194 224.806L221.144 238.713C221.144 239.453 220.684 240.049 220.132 240.042Z" fill="#FD7401"/>
<path d="M184.196 230.171C184.171 229.961 184.07 229.798 183.893 229.682C183.716 229.566 183.499 229.507 183.242 229.507C183.054 229.507 182.89 229.538 182.749 229.599C182.609 229.659 182.5 229.743 182.421 229.85C182.344 229.956 182.305 230.077 182.305 230.212C182.305 230.326 182.332 230.423 182.386 230.505C182.441 230.585 182.512 230.652 182.597 230.706C182.683 230.758 182.773 230.802 182.867 230.836C182.961 230.87 183.047 230.897 183.126 230.917L183.557 231.033C183.668 231.062 183.791 231.102 183.926 231.154C184.063 231.205 184.194 231.275 184.318 231.363C184.444 231.45 184.548 231.562 184.629 231.699C184.711 231.836 184.752 232.004 184.752 232.203C184.752 232.432 184.691 232.639 184.571 232.825C184.452 233.01 184.278 233.157 184.049 233.266C183.821 233.375 183.544 233.43 183.217 233.43C182.913 233.43 182.65 233.381 182.427 233.283C182.206 233.185 182.032 233.048 181.905 232.872C181.779 232.697 181.708 232.493 181.691 232.261H182.222C182.236 232.421 182.29 232.554 182.384 232.659C182.479 232.762 182.599 232.84 182.745 232.891C182.891 232.941 183.049 232.966 183.217 232.966C183.414 232.966 183.59 232.934 183.746 232.87C183.902 232.805 184.026 232.715 184.117 232.601C184.208 232.485 184.254 232.349 184.254 232.194C184.254 232.053 184.215 231.939 184.136 231.85C184.057 231.762 183.953 231.69 183.825 231.635C183.696 231.579 183.557 231.531 183.408 231.489L182.886 231.34C182.554 231.245 182.291 231.109 182.098 230.932C181.904 230.755 181.808 230.523 181.808 230.237C181.808 230 181.872 229.792 182 229.615C182.13 229.437 182.304 229.299 182.523 229.201C182.743 229.101 182.988 229.051 183.259 229.051C183.532 229.051 183.776 229.1 183.989 229.199C184.201 229.295 184.37 229.428 184.494 229.597C184.62 229.765 184.687 229.957 184.693 230.171H184.196ZM186.111 229.109V233.355H185.597V229.109H186.111ZM190.509 229.109V233.355H190.011L187.698 230.022H187.656V233.355H187.142V229.109H187.64L189.962 232.451H190.003V229.109H190.509ZM194.44 230.436C194.395 230.297 194.335 230.172 194.26 230.061C194.187 229.949 194.099 229.854 193.997 229.775C193.896 229.696 193.781 229.636 193.652 229.595C193.524 229.553 193.383 229.532 193.23 229.532C192.978 229.532 192.749 229.597 192.543 229.727C192.337 229.857 192.174 230.049 192.052 230.302C191.93 230.554 191.869 230.865 191.869 231.232C191.869 231.6 191.931 231.91 192.054 232.163C192.177 232.416 192.344 232.608 192.554 232.738C192.764 232.868 193 232.932 193.263 232.932C193.506 232.932 193.72 232.881 193.905 232.777C194.092 232.672 194.237 232.524 194.341 232.333C194.446 232.141 194.498 231.915 194.498 231.655L194.656 231.689H193.379V231.232H194.996V231.689C194.996 232.038 194.921 232.342 194.772 232.601C194.624 232.859 194.42 233.06 194.158 233.202C193.899 233.343 193.6 233.413 193.263 233.413C192.887 233.413 192.556 233.325 192.272 233.148C191.988 232.971 191.767 232.72 191.608 232.393C191.451 232.067 191.372 231.68 191.372 231.232C191.372 230.897 191.417 230.595 191.507 230.326C191.598 230.057 191.726 229.827 191.892 229.638C192.058 229.449 192.254 229.304 192.481 229.203C192.708 229.102 192.957 229.051 193.23 229.051C193.453 229.051 193.662 229.085 193.856 229.153C194.051 229.219 194.224 229.314 194.376 229.437C194.529 229.559 194.657 229.704 194.76 229.874C194.862 230.043 194.932 230.23 194.971 230.436H194.44ZM200.305 229.109H200.819V231.921C200.819 232.211 200.751 232.47 200.614 232.698C200.478 232.925 200.287 233.104 200.04 233.235C199.792 233.365 199.502 233.43 199.169 233.43C198.836 233.43 198.546 233.365 198.298 233.235C198.051 233.104 197.859 232.925 197.722 232.698C197.586 232.47 197.519 232.211 197.519 231.921V229.109H198.033V231.879C198.033 232.087 198.078 232.271 198.17 232.433C198.261 232.593 198.391 232.72 198.559 232.812C198.729 232.903 198.933 232.949 199.169 232.949C199.405 232.949 199.608 232.903 199.778 232.812C199.948 232.72 200.078 232.593 200.168 232.433C200.259 232.271 200.305 232.087 200.305 231.879V229.109ZM201.846 233.355V229.109H203.281C203.614 229.109 203.886 229.17 204.097 229.29C204.31 229.409 204.468 229.57 204.57 229.773C204.672 229.976 204.724 230.203 204.724 230.453C204.724 230.703 204.672 230.93 204.57 231.135C204.469 231.34 204.313 231.503 204.102 231.624C203.89 231.744 203.619 231.805 203.289 231.805H202.261V231.349H203.272C203.5 231.349 203.684 231.309 203.822 231.23C203.96 231.152 204.06 231.045 204.122 230.911C204.186 230.776 204.218 230.623 204.218 230.453C204.218 230.283 204.186 230.131 204.122 229.997C204.06 229.863 203.959 229.758 203.82 229.682C203.68 229.604 203.495 229.566 203.264 229.566H202.36V233.355H201.846Z" fill="#E8E8E3"/>
<path d="M177.529 117.644L159.062 117.561L159.046 120.95L177.513 121.033L177.529 117.644Z" fill="#FD7401"/>
<path opacity="0.1" d="M177.529 117.644L159.062 117.561L159.046 120.95L177.513 121.033L177.529 117.644Z" fill="black"/>
<path d="M231.663 138.452C231.808 138.437 231.95 138.403 232.086 138.351C232.285 138.274 232.458 138.142 232.585 137.97C232.712 137.799 232.788 137.595 232.804 137.382C232.804 136.241 232.804 134.575 232.804 132.435C232.804 131.365 232.804 130.166 232.804 128.845C232.804 128.522 232.804 128.185 232.804 127.847C232.851 127.52 232.78 127.186 232.603 126.907C232.505 126.772 232.376 126.663 232.228 126.587C232.079 126.511 231.916 126.47 231.749 126.469H230.629H220.254L160.2 126.246C160.047 126.243 159.894 126.278 159.757 126.347C159.619 126.415 159.501 126.516 159.41 126.641C159.237 126.922 159.171 127.256 159.224 127.581C159.224 128.299 159.224 129.017 159.224 129.735C159.224 131.171 159.224 132.607 159.224 134.043C159.224 134.761 159.224 135.479 159.224 136.197C159.194 136.532 159.194 136.868 159.224 137.203C159.261 137.346 159.332 137.479 159.429 137.591C159.526 137.703 159.647 137.791 159.784 137.849C159.925 137.905 160.077 137.932 160.229 137.928H163.884L179.83 138.014L206.827 138.179L225.028 138.323L229.975 138.38H231.261C231.555 138.38 231.699 138.38 231.699 138.38H231.261H229.975H225.028H206.827L179.83 138.294L163.884 138.229H160.229C160.028 138.237 159.827 138.203 159.64 138.129C159.451 138.048 159.283 137.925 159.149 137.77C159.014 137.614 158.917 137.43 158.865 137.231C158.823 137.043 158.809 136.849 158.822 136.657V136.126C158.822 135.408 158.822 134.69 158.822 133.972C158.822 132.536 158.822 131.1 158.822 129.664C158.822 128.946 158.822 128.228 158.822 127.51C158.808 127.318 158.808 127.126 158.822 126.935C158.849 126.724 158.93 126.524 159.059 126.354C159.182 126.18 159.346 126.04 159.536 125.943C159.726 125.847 159.937 125.798 160.15 125.801L220.203 126.131L230.579 126.203H231.699C231.896 126.203 232.09 126.251 232.265 126.342C232.44 126.433 232.591 126.565 232.704 126.727C232.906 127.039 232.988 127.414 232.934 127.782C232.934 128.12 232.934 128.457 232.934 128.78C232.934 130.087 232.934 131.286 232.934 132.37C232.934 134.524 232.883 136.176 232.869 137.325C232.851 137.546 232.771 137.757 232.638 137.934C232.504 138.11 232.323 138.245 232.115 138.323C231.979 138.407 231.823 138.452 231.663 138.452Z" fill="#E0E0E0"/>
<path d="M198.383 129.85H164.609V133.017H198.383V129.85Z" fill="#FD7401"/>
<path opacity="0.2" d="M198.383 129.85H164.609V133.017H198.383V129.85Z" fill="white"/>
<path d="M177.403 148.561L158.936 148.477L158.92 151.866L177.387 151.95L177.403 148.561Z" fill="#FD7401"/>
<path opacity="0.1" d="M177.403 148.561L158.936 148.477L158.92 151.866L177.387 151.95L177.403 148.561Z" fill="black"/>
<path d="M231.196 169.369C231.341 169.351 231.485 169.325 231.627 169.29C231.827 169.226 232.012 169.12 232.168 168.979C232.324 168.838 232.448 168.665 232.531 168.472C232.645 168.182 232.689 167.87 232.661 167.56C232.661 167.215 232.661 166.842 232.661 166.425C232.661 165.592 232.661 164.645 232.661 163.553V158.994C232.695 158.664 232.622 158.332 232.453 158.046C232.275 157.754 231.997 157.536 231.67 157.436C231.312 157.372 230.948 157.353 230.586 157.378H220.254L160.408 157.156C160.086 157.157 159.776 157.274 159.534 157.487C159.292 157.7 159.136 157.993 159.094 158.312C159.094 158.994 159.094 159.748 159.094 160.466C159.094 161.902 159.094 163.338 159.094 164.774C159.094 165.492 159.094 166.21 159.094 166.928C159.068 167.263 159.082 167.601 159.138 167.933C159.227 168.224 159.412 168.477 159.662 168.651C159.927 168.819 160.238 168.9 160.552 168.881H161.55H163.625L179.514 168.96L206.418 169.125L224.555 169.269L229.487 169.326H230.772H231.203H230.772H229.487H224.555H206.418L179.5 169.297L163.611 169.24H160.487C160.099 169.263 159.714 169.16 159.389 168.945C159.062 168.719 158.824 168.387 158.714 168.005C158.65 167.64 158.63 167.269 158.656 166.899C158.656 166.181 158.656 165.463 158.656 164.745C158.656 163.309 158.656 161.873 158.656 160.437C158.656 159.719 158.656 159.001 158.656 158.283C158.709 157.873 158.909 157.495 159.22 157.222C159.53 156.948 159.93 156.797 160.344 156.797L220.189 157.127L230.521 157.206C230.906 157.183 231.292 157.209 231.67 157.285C232.043 157.407 232.358 157.663 232.553 158.003C232.739 158.319 232.819 158.686 232.783 159.051C232.783 159.389 232.783 159.719 232.783 160.049C232.783 161.349 232.783 162.541 232.783 163.639C232.783 164.738 232.783 165.664 232.783 166.511C232.783 166.921 232.783 167.301 232.783 167.653C232.809 167.974 232.757 168.297 232.632 168.594C232.539 168.792 232.404 168.967 232.237 169.109C232.069 169.25 231.874 169.353 231.663 169.412C231.506 169.425 231.348 169.411 231.196 169.369Z" fill="#E0E0E0"/>
<path d="M177.263 180.819L158.797 180.736L158.781 184.125L177.248 184.208L177.263 180.819Z" fill="#FD7401"/>
<path opacity="0.1" d="M177.263 180.819L158.797 180.736L158.781 184.125L177.248 184.208L177.263 180.819Z" fill="black"/>
<path d="M231.052 201.614C231.198 201.597 231.341 201.571 231.483 201.535C231.683 201.472 231.867 201.367 232.023 201.227C232.179 201.087 232.303 200.916 232.388 200.724C232.5 200.434 232.545 200.122 232.517 199.812C232.517 199.46 232.517 199.094 232.517 198.671C232.517 197.845 232.517 196.89 232.517 195.799V191.239C232.551 190.909 232.478 190.577 232.309 190.292C232.128 190.004 231.85 189.791 231.526 189.688C231.169 189.622 230.805 189.6 230.442 189.624H220.11L160.265 189.401C159.943 189.402 159.632 189.52 159.391 189.732C159.149 189.945 158.993 190.238 158.951 190.557C158.951 191.275 158.951 191.993 158.951 192.711C158.951 194.147 158.951 195.583 158.951 197.019C158.951 197.737 158.951 198.455 158.951 199.173C158.924 199.506 158.939 199.842 158.994 200.171C159.08 200.464 159.265 200.718 159.518 200.889C159.782 201.061 160.094 201.142 160.408 201.119H163.532L179.421 201.205L206.324 201.37L224.461 201.514L229.394 201.571H230.679C230.966 201.571 231.11 201.571 231.11 201.571C231.11 201.571 230.966 201.571 230.679 201.571H229.394H224.461H206.324L179.421 201.492L163.532 201.428H160.408C160.02 201.454 159.633 201.35 159.31 201.133C158.983 200.907 158.745 200.575 158.635 200.193C158.571 199.828 158.551 199.457 158.577 199.087C158.577 198.369 158.577 197.651 158.577 196.933C158.577 195.497 158.577 194.061 158.577 192.625C158.577 191.907 158.577 191.189 158.577 190.435C158.628 190.025 158.827 189.648 159.136 189.374C159.446 189.101 159.845 188.949 160.258 188.949L220.103 189.279L230.435 189.358C230.82 189.335 231.206 189.361 231.584 189.437C231.957 189.559 232.271 189.815 232.467 190.155C232.653 190.471 232.733 190.838 232.697 191.203C232.697 191.541 232.697 191.878 232.697 192.201C232.697 193.501 232.697 194.693 232.697 195.791C232.697 196.89 232.697 197.816 232.697 198.663C232.697 199.073 232.697 199.453 232.697 199.805C232.724 200.126 232.672 200.449 232.546 200.746C232.453 200.944 232.318 201.119 232.151 201.261C231.983 201.402 231.787 201.505 231.577 201.564C231.408 201.622 231.229 201.639 231.052 201.614Z" fill="#E0E0E0"/>
<path d="M197.662 161.663L163.888 161.509L163.874 164.676L197.648 164.829L197.662 161.663Z" fill="#FD7401"/>
<path opacity="0.2" d="M197.662 161.663L163.888 161.509L163.874 164.676L197.648 164.829L197.662 161.663Z" fill="white"/>
<path d="M166.942 195.756C166.921 196.044 166.815 196.321 166.639 196.55C166.462 196.779 166.222 196.952 165.948 197.046C165.674 197.14 165.379 197.152 165.098 197.08C164.818 197.007 164.565 196.854 164.37 196.64C164.176 196.425 164.049 196.158 164.005 195.872C163.961 195.586 164.002 195.293 164.123 195.03C164.244 194.766 164.44 194.545 164.685 194.392C164.931 194.239 165.217 194.161 165.506 194.169C165.906 194.191 166.281 194.37 166.55 194.667C166.819 194.964 166.96 195.355 166.942 195.756Z" fill="#FD7401"/>
<path d="M171.516 195.777C171.53 195.979 171.502 196.183 171.435 196.374C171.367 196.565 171.26 196.74 171.122 196.889C170.984 197.037 170.816 197.156 170.63 197.236C170.444 197.317 170.243 197.359 170.04 197.359C169.837 197.359 169.637 197.317 169.451 197.236C169.265 197.156 169.097 197.037 168.959 196.889C168.82 196.74 168.714 196.565 168.646 196.374C168.578 196.183 168.551 195.979 168.565 195.777C168.551 195.575 168.578 195.371 168.646 195.18C168.714 194.989 168.82 194.814 168.959 194.665C169.097 194.517 169.265 194.399 169.451 194.318C169.637 194.237 169.837 194.195 170.04 194.195C170.243 194.195 170.444 194.237 170.63 194.318C170.816 194.399 170.984 194.517 171.122 194.665C171.26 194.814 171.367 194.989 171.435 195.18C171.502 195.371 171.53 195.575 171.516 195.777Z" fill="#FD7401"/>
<path d="M176.097 195.799C176.075 196.087 175.97 196.364 175.793 196.593C175.617 196.822 175.376 196.995 175.102 197.089C174.829 197.183 174.533 197.195 174.253 197.123C173.972 197.051 173.719 196.898 173.525 196.683C173.331 196.468 173.204 196.201 173.16 195.915C173.116 195.629 173.157 195.336 173.278 195.073C173.399 194.81 173.594 194.588 173.84 194.435C174.086 194.282 174.371 194.204 174.661 194.212C175.06 194.236 175.434 194.416 175.702 194.712C175.971 195.009 176.112 195.399 176.097 195.799Z" fill="#FD7401"/>
<path d="M180.67 195.82C180.649 196.109 180.544 196.385 180.367 196.615C180.19 196.844 179.95 197.016 179.676 197.111C179.402 197.205 179.107 197.216 178.826 197.144C178.546 197.072 178.293 196.919 178.099 196.704C177.904 196.49 177.777 196.223 177.733 195.936C177.689 195.65 177.73 195.357 177.851 195.094C177.972 194.831 178.168 194.609 178.414 194.456C178.659 194.303 178.945 194.226 179.234 194.233C179.634 194.257 180.008 194.437 180.276 194.734C180.545 195.03 180.686 195.42 180.67 195.82Z" fill="#FD7401"/>
<path d="M185.244 195.835C185.224 196.124 185.12 196.401 184.944 196.631C184.768 196.862 184.528 197.035 184.254 197.13C183.98 197.226 183.685 197.238 183.404 197.167C183.123 197.095 182.869 196.943 182.674 196.728C182.479 196.514 182.351 196.247 182.307 195.96C182.262 195.674 182.303 195.381 182.424 195.117C182.545 194.854 182.74 194.631 182.986 194.478C183.233 194.325 183.518 194.247 183.808 194.255C184.206 194.279 184.579 194.458 184.847 194.753C185.116 195.048 185.258 195.436 185.244 195.835Z" fill="#FD7401"/>
<path d="M189.825 195.856C189.805 196.144 189.702 196.42 189.528 196.649C189.353 196.879 189.116 197.053 188.844 197.149C188.572 197.246 188.278 197.261 187.998 197.192C187.718 197.124 187.464 196.975 187.267 196.764C187.07 196.553 186.94 196.289 186.891 196.005C186.843 195.72 186.878 195.428 186.994 195.164C187.109 194.899 187.299 194.675 187.541 194.517C187.782 194.359 188.065 194.276 188.353 194.276C188.757 194.291 189.139 194.466 189.415 194.762C189.691 195.058 189.838 195.452 189.825 195.856Z" fill="#FD7401"/>
<path d="M194.398 195.878C194.413 196.08 194.385 196.283 194.317 196.474C194.249 196.666 194.143 196.841 194.005 196.989C193.866 197.138 193.699 197.256 193.513 197.337C193.327 197.418 193.126 197.46 192.923 197.46C192.72 197.46 192.519 197.418 192.333 197.337C192.147 197.256 191.98 197.138 191.841 196.989C191.703 196.841 191.597 196.666 191.529 196.474C191.461 196.283 191.433 196.08 191.448 195.878C191.433 195.675 191.461 195.472 191.529 195.281C191.597 195.089 191.703 194.914 191.841 194.766C191.98 194.617 192.147 194.499 192.333 194.418C192.519 194.337 192.72 194.296 192.923 194.296C193.126 194.296 193.327 194.337 193.513 194.418C193.699 194.499 193.866 194.617 194.005 194.766C194.143 194.914 194.249 195.089 194.317 195.281C194.385 195.472 194.413 195.675 194.398 195.878Z" fill="#FD7401"/>
<path d="M198.972 195.899C198.953 196.187 198.849 196.463 198.675 196.692C198.501 196.922 198.263 197.096 197.991 197.192C197.719 197.289 197.425 197.304 197.145 197.235C196.865 197.167 196.611 197.018 196.414 196.807C196.218 196.596 196.087 196.332 196.039 196.048C195.99 195.763 196.026 195.471 196.141 195.207C196.256 194.943 196.446 194.718 196.688 194.56C196.929 194.402 197.212 194.319 197.5 194.32C197.905 194.334 198.287 194.509 198.563 194.805C198.838 195.101 198.986 195.495 198.972 195.899Z" fill="#FD7401"/>
<path d="M203.546 195.921C203.526 196.21 203.422 196.487 203.246 196.717C203.07 196.948 202.83 197.121 202.556 197.217C202.282 197.312 201.987 197.325 201.706 197.253C201.425 197.182 201.171 197.029 200.976 196.815C200.781 196.6 200.653 196.333 200.609 196.046C200.564 195.76 200.605 195.467 200.726 195.203C200.847 194.94 201.042 194.717 201.288 194.564C201.534 194.411 201.82 194.333 202.11 194.341C202.508 194.365 202.881 194.544 203.149 194.839C203.417 195.134 203.56 195.522 203.546 195.921Z" fill="#FD7401"/>
<g opacity="0.2">
<path d="M166.942 195.756C166.921 196.044 166.815 196.321 166.639 196.55C166.462 196.779 166.222 196.952 165.948 197.046C165.674 197.14 165.379 197.152 165.098 197.08C164.818 197.007 164.565 196.854 164.37 196.64C164.176 196.425 164.049 196.158 164.005 195.872C163.961 195.586 164.002 195.293 164.123 195.03C164.244 194.766 164.44 194.545 164.685 194.392C164.931 194.239 165.217 194.161 165.506 194.169C165.906 194.191 166.281 194.37 166.55 194.667C166.819 194.964 166.96 195.355 166.942 195.756Z" fill="white"/>
<path d="M171.516 195.777C171.53 195.98 171.502 196.183 171.435 196.374C171.367 196.565 171.26 196.74 171.122 196.889C170.984 197.037 170.816 197.156 170.63 197.236C170.444 197.317 170.243 197.359 170.04 197.359C169.837 197.359 169.637 197.317 169.451 197.236C169.265 197.156 169.097 197.037 168.959 196.889C168.82 196.74 168.714 196.565 168.646 196.374C168.578 196.183 168.551 195.98 168.565 195.777C168.551 195.575 168.578 195.372 168.646 195.18C168.714 194.989 168.82 194.814 168.959 194.665C169.097 194.517 169.265 194.399 169.451 194.318C169.637 194.237 169.837 194.195 170.04 194.195C170.243 194.195 170.444 194.237 170.63 194.318C170.816 194.399 170.984 194.517 171.122 194.665C171.26 194.814 171.367 194.989 171.435 195.18C171.502 195.372 171.53 195.575 171.516 195.777Z" fill="white"/>
<path d="M176.097 195.799C176.075 196.087 175.97 196.364 175.793 196.593C175.617 196.822 175.376 196.995 175.102 197.089C174.829 197.183 174.533 197.195 174.253 197.123C173.972 197.051 173.719 196.898 173.525 196.683C173.331 196.468 173.204 196.201 173.16 195.915C173.116 195.629 173.157 195.336 173.278 195.073C173.399 194.81 173.594 194.588 173.84 194.435C174.086 194.282 174.371 194.204 174.661 194.212C175.06 194.236 175.434 194.416 175.702 194.712C175.971 195.009 176.112 195.399 176.097 195.799Z" fill="white"/>
<path d="M180.67 195.82C180.649 196.109 180.544 196.385 180.367 196.615C180.19 196.844 179.95 197.016 179.676 197.111C179.402 197.205 179.107 197.216 178.826 197.144C178.546 197.072 178.293 196.919 178.099 196.704C177.904 196.49 177.777 196.223 177.733 195.936C177.689 195.65 177.73 195.357 177.851 195.094C177.972 194.831 178.168 194.609 178.414 194.456C178.659 194.303 178.945 194.226 179.234 194.233C179.634 194.257 180.008 194.437 180.276 194.734C180.545 195.03 180.686 195.42 180.67 195.82Z" fill="white"/>
<path d="M185.244 195.835C185.224 196.124 185.12 196.401 184.944 196.631C184.768 196.862 184.528 197.035 184.254 197.13C183.98 197.226 183.685 197.238 183.404 197.167C183.123 197.095 182.869 196.943 182.674 196.728C182.479 196.514 182.351 196.247 182.307 195.96C182.262 195.674 182.303 195.381 182.424 195.117C182.545 194.854 182.74 194.631 182.986 194.478C183.232 194.325 183.518 194.247 183.808 194.255C184.206 194.279 184.579 194.458 184.847 194.753C185.115 195.048 185.258 195.436 185.244 195.835Z" fill="white"/>
<path d="M189.825 195.856C189.805 196.144 189.702 196.42 189.528 196.649C189.353 196.879 189.116 197.053 188.844 197.149C188.572 197.246 188.278 197.261 187.998 197.192C187.718 197.124 187.464 196.975 187.267 196.764C187.07 196.553 186.94 196.289 186.891 196.005C186.843 195.72 186.878 195.428 186.994 195.164C187.109 194.899 187.299 194.675 187.541 194.517C187.782 194.359 188.065 194.276 188.353 194.276C188.757 194.291 189.139 194.466 189.415 194.762C189.691 195.058 189.838 195.452 189.825 195.856Z" fill="white"/>
<path d="M194.398 195.878C194.413 196.08 194.385 196.283 194.317 196.474C194.249 196.666 194.143 196.841 194.005 196.989C193.866 197.138 193.699 197.256 193.513 197.337C193.327 197.418 193.126 197.46 192.923 197.46C192.72 197.46 192.519 197.418 192.333 197.337C192.147 197.256 191.98 197.138 191.841 196.989C191.703 196.841 191.597 196.666 191.529 196.474C191.461 196.283 191.433 196.08 191.448 195.878C191.433 195.675 191.461 195.472 191.529 195.281C191.597 195.089 191.703 194.914 191.841 194.766C191.98 194.617 192.147 194.499 192.333 194.418C192.519 194.337 192.72 194.296 192.923 194.296C193.126 194.296 193.327 194.337 193.513 194.418C193.699 194.499 193.866 194.617 194.005 194.766C194.143 194.914 194.249 195.089 194.317 195.281C194.385 195.472 194.413 195.675 194.398 195.878Z" fill="white"/>
<path d="M198.972 195.899C198.953 196.187 198.849 196.463 198.675 196.692C198.501 196.922 198.263 197.096 197.991 197.193C197.719 197.289 197.425 197.304 197.145 197.235C196.865 197.167 196.611 197.018 196.414 196.807C196.218 196.596 196.087 196.332 196.039 196.048C195.99 195.764 196.026 195.471 196.141 195.207C196.256 194.943 196.446 194.718 196.688 194.56C196.929 194.402 197.212 194.319 197.5 194.32C197.905 194.335 198.287 194.509 198.563 194.805C198.838 195.101 198.986 195.495 198.972 195.899Z" fill="white"/>
<path d="M203.546 195.921C203.526 196.21 203.422 196.487 203.246 196.717C203.07 196.948 202.83 197.121 202.556 197.217C202.282 197.312 201.986 197.325 201.705 197.253C201.425 197.182 201.171 197.029 200.976 196.815C200.781 196.6 200.653 196.333 200.609 196.046C200.564 195.76 200.605 195.467 200.726 195.203C200.846 194.94 201.042 194.717 201.288 194.564C201.534 194.411 201.82 194.333 202.11 194.341C202.508 194.365 202.881 194.544 203.149 194.839C203.417 195.134 203.56 195.522 203.546 195.921Z" fill="white"/>
</g>
<path d="M197.048 92.2702C197.547 92.0505 197.97 91.6891 198.265 91.2308C198.56 90.7724 198.713 90.2375 198.707 89.6926C198.725 89.3383 198.671 88.984 198.549 88.6512C198.426 88.3183 198.237 88.014 197.992 87.7567C197.748 87.4993 197.454 87.2944 197.128 87.1544C196.802 87.0143 196.451 86.9421 196.097 86.9421C195.742 86.9421 195.391 87.0143 195.065 87.1544C194.739 87.2944 194.445 87.4993 194.201 87.7567C193.957 88.014 193.767 88.3183 193.645 88.6512C193.522 88.984 193.468 89.3383 193.487 89.6926C193.476 90.243 193.628 90.7843 193.925 91.2482C194.221 91.712 194.648 92.0777 195.152 92.2989C191.132 92.902 191.311 97.2675 191.311 97.2675L200.817 97.3105C200.817 97.3105 201.04 92.8661 197.048 92.2702Z" fill="#FD7401"/>
<path opacity="0.1" d="M197.048 92.2702C197.547 92.0505 197.97 91.6891 198.265 91.2308C198.56 90.7724 198.713 90.2375 198.707 89.6926C198.725 89.3383 198.671 88.984 198.549 88.6512C198.426 88.3183 198.237 88.014 197.992 87.7567C197.748 87.4993 197.454 87.2944 197.128 87.1544C196.802 87.0143 196.451 86.9421 196.097 86.9421C195.742 86.9421 195.391 87.0143 195.065 87.1544C194.739 87.2944 194.445 87.4993 194.201 87.7567C193.957 88.014 193.767 88.3183 193.645 88.6512C193.522 88.984 193.468 89.3383 193.487 89.6926C193.476 90.243 193.628 90.7843 193.925 91.2482C194.221 91.712 194.648 92.0777 195.152 92.2989C191.132 92.902 191.311 97.2675 191.311 97.2675L200.817 97.3105C200.817 97.3105 201.04 92.8661 197.048 92.2702Z" fill="black"/>
<path d="M212.495 100.126L178.613 99.9724L178.595 104.022L212.477 104.176L212.495 100.126Z" fill="#FD7401"/>
<path opacity="0.2" d="M212.495 100.126L178.613 99.9724L178.595 104.022L212.477 104.176L212.495 100.126Z" fill="white"/>
<path d="M87.9335 121.112H87.596L86.6195 121.184C86.0911 121.216 85.5656 121.285 85.0471 121.392C84.7113 121.439 84.3781 121.504 84.0491 121.586L82.9362 121.895C81.042 122.476 79.2548 123.361 77.6445 124.516C75.517 126.06 73.7405 128.037 72.4318 130.317C71.6627 131.631 71.0506 133.031 70.6081 134.489C70.1432 136.072 69.8755 137.707 69.8111 139.357C69.7684 140.223 69.7827 141.091 69.8542 141.956C69.8542 142.394 69.9763 142.832 70.0337 143.277C70.082 143.726 70.1661 144.17 70.285 144.605C70.9307 147.486 72.2407 150.177 74.1106 152.462C75.9805 154.747 78.3585 156.563 81.055 157.766C83.0066 158.608 85.0984 159.078 87.2226 159.152C89.4167 159.273 91.6129 158.958 93.6846 158.226L94.3165 157.989H94.4026L94.4744 158.032L103.528 162.627L103.263 162.857C102.293 159.856 101.36 156.948 100.455 154.155V154.047L100.534 153.968C102.731 151.756 104.361 149.046 105.288 146.07C106.127 143.349 106.371 140.479 106.006 137.655C105.68 135.145 104.873 132.722 103.629 130.518C102.556 128.625 101.173 126.926 99.5363 125.492C98.1861 124.357 96.6917 123.406 95.0919 122.663C93.8815 122.141 92.6208 121.744 91.3296 121.478L89.8936 121.241L88.8525 121.162L88.2207 121.119H88.0053C88.0768 121.111 88.1491 121.111 88.2207 121.119H88.8597L89.9008 121.162L91.3368 121.371C92.6441 121.617 93.9219 122 95.1494 122.512C96.7766 123.246 98.298 124.195 99.6728 125.334C101.339 126.762 102.752 128.461 103.852 130.36C105.131 132.588 105.963 135.044 106.3 137.59C106.696 140.458 106.468 143.377 105.632 146.149C104.7 149.187 103.044 151.954 100.807 154.212L100.85 154.025C101.755 156.818 102.696 159.726 103.672 162.72L103.808 163.158L103.399 162.95L94.3452 158.362H94.5032L93.857 158.599C91.7453 159.342 89.5084 159.664 87.2729 159.547C85.1029 159.464 82.9673 158.977 80.976 158.111C77.1776 156.484 74.0173 153.657 71.9795 150.062C71.0417 148.402 70.3569 146.611 69.9476 144.749C69.8355 144.302 69.7515 143.849 69.6963 143.392C69.6388 142.939 69.5455 142.494 69.5239 142.049C69.3296 139.494 69.5996 136.926 70.3209 134.467C70.7744 132.99 71.4035 131.572 72.1949 130.245C73.5348 127.944 75.3483 125.955 77.5153 124.408C79.1521 123.25 80.9693 122.372 82.8931 121.809L84.0204 121.521C84.3521 121.445 84.6876 121.385 85.0256 121.342C85.5494 121.245 86.0798 121.187 86.6123 121.17L87.596 121.134C87.7078 121.119 87.8206 121.112 87.9335 121.112Z" fill="#FD7401"/>
<path d="M92.026 137.856H90.6977L87.8257 133.821V131.171C87.8257 131.171 85.7723 131.042 86.0164 134.51C86.2605 137.978 86.0164 137.095 86.0164 137.095C86.0164 137.095 81.6581 137.095 81.2991 137.49C80.9401 137.885 80.9186 142.092 80.8683 144.44C80.8408 145.006 81.0032 145.565 81.3297 146.028C81.6563 146.491 82.1282 146.832 82.6705 146.996C82.8225 147.038 82.9795 147.06 83.1372 147.061C84.2286 147.061 89.7787 146.178 89.7787 146.178H92.0691L92.026 137.856Z" fill="#FD7401"/>
<path d="M95.8243 137.145L95.0057 146.221H92.7369V137.332L95.8243 137.145Z" fill="#FD7401"/>
<path d="M122.886 321.908V315.769L111.879 315.69L111.785 324.974L112.468 325.024C115.505 325.218 127.919 325.505 129.958 324.873C132.227 324.17 122.886 321.908 122.886 321.908Z" fill="#FD7401"/>
<path d="M130.216 324.299C130.216 324.4 126.095 324.486 121.019 324.486C115.943 324.486 111.821 324.4 111.821 324.299C111.821 324.199 115.943 324.112 121.019 324.112C126.095 324.112 130.216 324.199 130.216 324.299Z" fill="#263238"/>
<path d="M123.08 323.165C122.986 323.114 123.08 322.791 123.302 322.447C123.525 322.102 123.826 321.958 123.898 322.03C123.97 322.102 123.819 322.375 123.604 322.669C123.388 322.964 123.173 323.215 123.08 323.165Z" fill="#263238"/>
<path d="M123.783 323.567C123.683 323.567 123.733 323.165 123.948 322.784C124.164 322.404 124.451 322.174 124.53 322.231C124.609 322.289 124.48 322.612 124.279 322.949C124.078 323.287 123.877 323.603 123.783 323.567Z" fill="#263238"/>
<path d="M115.138 324.27C115.095 324.27 114.93 324.141 114.693 323.868C114.404 323.518 114.082 323.195 113.731 322.906C113.386 322.631 112.975 322.45 112.539 322.382C112.202 322.339 111.986 322.382 111.965 322.339C111.943 322.296 112.152 322.145 112.546 322.116C113.068 322.105 113.576 322.278 113.982 322.605C114.363 322.915 114.684 323.292 114.93 323.717C115.095 324.033 115.182 324.242 115.138 324.27Z" fill="#263238"/>
<path d="M123.115 322.009C123.166 322.095 122.979 322.31 122.663 322.425C122.347 322.54 122.067 322.497 122.053 322.425C122.038 322.353 122.261 322.202 122.534 322.102C122.807 322.001 123.058 321.922 123.115 322.009Z" fill="#263238"/>
<path d="M122.943 321.413C122.943 321.52 122.656 321.607 122.283 321.614C121.909 321.621 121.615 321.535 121.622 321.434C121.629 321.334 121.924 321.24 122.283 321.233C122.642 321.226 122.929 321.312 122.943 321.413Z" fill="#263238"/>
<path d="M149.99 321.908V315.769L138.983 315.69L138.89 324.881L139.572 324.931C142.609 325.125 155.031 325.505 157.063 324.873C159.331 324.17 149.99 321.908 149.99 321.908Z" fill="#FD7401"/>
<path d="M157.321 324.313C157.321 324.414 153.207 324.5 148.123 324.5C143.04 324.5 138.933 324.414 138.933 324.313C138.933 324.213 143.047 324.127 148.123 324.127C153.2 324.127 157.321 324.213 157.321 324.313Z" fill="#263238"/>
<path d="M150.184 323.165C150.098 323.114 150.184 322.791 150.407 322.447C150.629 322.102 150.931 321.958 151.003 322.03C151.074 322.102 150.924 322.375 150.708 322.669C150.493 322.964 150.277 323.215 150.184 323.165Z" fill="#263238"/>
<path d="M150.888 323.567C150.794 323.567 150.837 323.165 151.06 322.784C151.283 322.404 151.563 322.174 151.642 322.231C151.721 322.289 151.584 322.612 151.383 322.949C151.182 323.287 150.988 323.603 150.888 323.567Z" fill="#263238"/>
<path d="M142.243 324.27C142.2 324.27 142.042 324.141 141.798 323.868C141.509 323.518 141.186 323.195 140.836 322.906C140.491 322.631 140.08 322.45 139.644 322.382C139.314 322.339 139.091 322.382 139.069 322.339C139.048 322.296 139.256 322.145 139.651 322.116C140.172 322.105 140.681 322.278 141.087 322.605C141.47 322.913 141.791 323.29 142.035 323.717C142.2 324.033 142.286 324.242 142.243 324.27Z" fill="#263238"/>
<path d="M150.22 322.009C150.27 322.095 150.084 322.31 149.768 322.425C149.452 322.54 149.172 322.497 149.157 322.425C149.143 322.353 149.366 322.202 149.638 322.102C149.911 322.001 150.163 321.922 150.22 322.009Z" fill="#263238"/>
<path d="M150.062 321.413C150.062 321.52 149.775 321.607 149.401 321.614C149.028 321.621 148.741 321.535 148.748 321.434C148.755 321.334 149.042 321.24 149.401 321.233C149.76 321.226 150.062 321.312 150.062 321.413Z" fill="#263238"/>
<path d="M190.543 139.608C190.256 139.314 189.545 139.457 189.545 139.457C189.616 139.044 189.616 138.621 189.545 138.208C189.416 137.806 188.511 137.885 188.511 137.885C188.469 137.546 188.469 137.204 188.511 136.865C188.518 136.79 188.502 136.715 188.465 136.649C188.427 136.584 188.371 136.531 188.303 136.499C187.875 136.324 187.415 136.241 186.953 136.255C186.4 135.86 188.64 132.722 189.473 131.717C190.306 130.712 190.155 129.929 189.416 129.929C188.906 129.929 186.292 132.945 185.488 133.957C184.684 134.97 182.551 137.784 182.48 135.537C182.408 133.289 181.503 131.595 180.936 131.308C180.369 131.021 179.766 131.696 180.074 132.32C180.346 133.03 180.515 133.774 180.577 134.532C180.655 135.135 180.628 135.747 180.498 136.341C180.26 137.446 179.936 138.531 179.529 139.586H179.471C179.471 139.586 163.805 154.614 162.67 155.684C161.658 156.646 141.295 154.542 137.21 154.111C135.822 153.908 134.42 153.812 133.017 153.824C131.243 153.903 130.927 154.155 129.161 154.176C124.7 154.226 120.25 154.617 115.849 155.346C113.857 155.685 111.995 156.565 110.468 157.889C108.941 159.214 107.807 160.932 107.19 162.857C103.076 175.709 93.7564 206.131 92.1122 223.219C90.8698 225.472 89.7481 227.79 88.752 230.162C87.596 233.307 87.876 233.415 88.2637 233.486C89.312 233.68 90.5039 228.037 90.9491 229.401C91.3942 230.765 88.6874 236.129 89.7859 236.287C91.2219 236.488 92.3635 230.543 92.4999 230.069C92.6364 229.595 93.3472 229.746 93.2179 230.191C93.0097 230.823 90.9921 237.522 92.3994 237.737C93.1749 237.852 93.261 236.437 93.261 236.437C93.261 236.437 94.697 230.026 95.3504 230.155C96.0038 230.284 95.3073 234.068 94.977 235.332C94.6468 236.595 95.1063 237.234 95.7812 236.926C96.2407 236.71 97.3393 232.869 97.6408 231.62C97.9424 230.37 98.6963 226.91 99.7087 228.913C100.721 230.916 102.258 232.079 102.889 232.108C103.032 232.091 103.166 232.033 103.275 231.939C103.384 231.846 103.462 231.722 103.5 231.584C103.538 231.446 103.533 231.299 103.487 231.164C103.441 231.028 103.355 230.909 103.241 230.823C102.698 230.292 102.231 229.688 101.855 229.028C101.521 228.513 101.278 227.945 101.137 227.348C100.848 226.156 100.68 224.939 100.635 223.714L100.52 222.996C102.128 215.034 106.759 191.663 113.444 176.736L116.187 182.379L117.379 186.558L110.069 204.601L141.245 204.192L136.592 186.285L142.243 167.617C148.353 167.753 164.041 167.983 166.655 166.799C169.943 165.363 186.953 143.88 186.953 143.88C188.062 143.018 189.123 142.098 190.134 141.123C190.134 141.123 191.168 140.254 190.543 139.608Z" fill="#FFBE9D"/>
<path d="M108.698 191.268C109.603 188.181 114.248 172.916 114.248 172.916C114.248 172.916 116.531 185.359 115.928 186.859C115.374 188.144 114.718 189.383 113.968 190.564C108.698 198.584 109.387 202.598 109.387 202.598L141.231 201.629C141.302 197.177 138.667 186.824 138.122 185.172C137.576 183.521 139.393 178.114 139.393 178.114C139.393 178.114 142.983 174.46 142.853 172.578C142.785 170.889 142.576 169.208 142.229 167.552L161.615 168.27L161.004 155.131L133.16 152.345C132.191 155.081 123.424 153.738 123.424 153.738C113.961 154.054 113.372 155.792 109.438 158.85C105.503 161.909 98.9907 188.159 98.9907 188.159L108.698 191.268Z" fill="#FD7401"/>
<path d="M127.524 188.159C126.972 188.258 126.41 188.287 125.851 188.245C124.81 188.245 123.381 188.173 121.809 188.015C120.236 187.858 118.815 187.635 117.802 187.434C117.244 187.362 116.697 187.222 116.172 187.017C116.734 187.018 117.294 187.071 117.845 187.175C118.865 187.305 120.279 187.484 121.845 187.642C123.41 187.8 124.832 187.908 125.858 187.98C126.418 187.987 126.976 188.047 127.524 188.159Z" fill="#263238"/>
<path d="M129.707 185.452C129.155 185.723 128.571 185.923 127.969 186.048C125.105 186.801 122.149 187.151 119.188 187.089C118.575 187.109 117.962 187.051 117.364 186.917C117.969 186.841 118.579 186.809 119.188 186.824C120.315 186.788 121.866 186.709 123.575 186.508C125.284 186.307 126.806 186.019 127.883 185.79C128.481 185.63 129.091 185.517 129.707 185.452Z" fill="#263238"/>
<path d="M140.419 173.375C140.405 173.923 140.33 174.467 140.197 174.998C140.01 175.996 139.723 177.36 139.357 178.854C138.99 180.347 138.639 181.726 138.323 182.659C138.196 183.193 138.008 183.711 137.763 184.203C137.803 183.657 137.904 183.118 138.064 182.595C138.337 181.474 138.646 180.182 138.99 178.768C139.335 177.353 139.665 176.061 139.938 174.941C140.035 174.402 140.197 173.876 140.419 173.375Z" fill="#263238"/>
<path d="M109.035 189.437C107.374 189.181 105.735 188.799 104.132 188.295C102.493 187.912 100.885 187.408 99.321 186.788C100.981 187.048 102.62 187.43 104.225 187.929C105.864 188.311 107.472 188.815 109.035 189.437Z" fill="#263238"/>
<path d="M142.573 167.395C142.302 167.441 142.026 167.441 141.755 167.395C141.005 167.318 140.268 167.141 139.565 166.87C138.39 166.429 137.321 165.747 136.426 164.868C135.531 163.989 134.829 162.932 134.367 161.765C133.855 160.482 133.637 159.101 133.727 157.723C133.76 156.586 134.099 155.48 134.711 154.521C135.141 153.875 135.784 153.4 136.528 153.178C136.726 153.123 136.932 153.097 137.138 153.099C137.282 153.099 137.353 153.099 137.353 153.099C137.353 153.099 137.052 153.099 136.571 153.293C135.889 153.545 135.31 154.018 134.927 154.636C133.95 156.172 133.677 158.98 134.718 161.6C135.203 162.836 135.961 163.946 136.937 164.846C137.736 165.582 138.657 166.175 139.658 166.598C140.598 166.969 141.575 167.236 142.573 167.395Z" fill="#263238"/>
<path d="M159.31 168.012C159.13 165.81 159.073 163.6 159.138 161.392C159.081 159.186 159.148 156.978 159.339 154.779C159.518 156.979 159.576 159.186 159.511 161.392C159.571 163.601 159.504 165.811 159.31 168.012Z" fill="#263238"/>
<path d="M132.974 153.149C133.053 151.548 133.218 149.739 133.218 149.739C133.218 149.739 137.181 149.301 137.418 145.208C137.655 141.116 137.418 131.674 137.418 131.674L130.238 127.998L122.268 134.266L123.496 154.729L130.805 155.196C131.364 155.211 131.906 155.004 132.312 154.621C132.719 154.237 132.957 153.708 132.974 153.149Z" fill="#FFBE9D"/>
<path d="M133.684 141.97C133.684 141.97 133.684 142.049 133.62 142.142C133.566 142.21 133.497 142.264 133.419 142.299C133.34 142.334 133.254 142.349 133.167 142.343C132.708 142.343 132.263 141.812 132.105 141.195C132.03 140.895 132.03 140.582 132.105 140.283C132.12 140.152 132.167 140.027 132.242 139.919C132.317 139.812 132.418 139.724 132.536 139.665C132.632 139.625 132.741 139.625 132.837 139.665C132.909 139.701 132.967 139.759 133.002 139.83C133.053 139.953 133.002 140.032 133.002 140.024C133.002 140.017 133.002 139.953 132.931 139.881C132.893 139.829 132.838 139.794 132.776 139.78C132.713 139.767 132.648 139.777 132.593 139.809C132.505 139.862 132.432 139.937 132.38 140.026C132.329 140.115 132.301 140.216 132.299 140.319C132.238 140.586 132.238 140.863 132.299 141.13C132.442 141.69 132.83 142.142 133.175 142.186C133.242 142.195 133.311 142.19 133.376 142.171C133.442 142.153 133.503 142.121 133.555 142.078C133.641 142.02 133.67 141.963 133.684 141.97Z" fill="#EB996E"/>
<path d="M139.881 129.463C139.328 127.581 137.325 126.648 135.501 126.131C132.722 125.341 129.721 124.997 127.007 125.995C124.293 126.993 121.033 128.745 121.033 131.739C119.432 131.609 118.513 133.009 117.881 134.747C117.477 135.806 117.235 136.919 117.163 138.05C116.962 141.97 115.864 147.384 113.322 150.256C111.886 151.857 109.897 152.963 109.079 154.959C108.361 156.689 108.734 158.743 108.066 160.495C107.47 162.038 106.156 163.137 105.194 164.479C104.214 166.003 103.637 167.75 103.518 169.557C103.399 171.365 103.741 173.173 104.512 174.811C105.289 176.408 106.383 177.83 107.727 178.99C109.072 180.151 110.638 181.025 112.331 181.561C115.685 182.581 119.261 182.616 122.634 181.661C125.166 181.056 127.527 179.885 129.542 178.236C131.603 176.553 133.018 174.209 133.548 171.602C134.058 168.673 133.239 165.693 132.629 162.778C130.719 153.566 131.265 153.085 133.677 144.533C133.735 144.383 133.763 144.225 133.807 144.074C133.85 143.923 133.871 143.851 133.9 143.736C133.968 143.398 134.004 143.055 134.008 142.71C133.655 142.841 133.273 142.868 132.905 142.79C132.538 142.711 132.2 142.529 131.933 142.265C131.664 141.983 131.477 141.634 131.391 141.255C131.305 140.876 131.324 140.48 131.444 140.111C131.614 139.706 131.866 139.342 132.185 139.041C132.504 138.741 132.883 138.511 133.297 138.366C134.094 138.035 134.948 137.863 135.731 137.497C137.389 136.707 138.538 135.07 139.321 133.354C139.964 132.165 140.163 130.785 139.881 129.463Z" fill="#263238"/>
<path d="M133.972 142.164C134.123 142.388 134.249 142.629 134.345 142.882C134.56 143.334 134.848 143.973 135.164 144.713L135.221 144.849H135.07L134.352 144.914C133.857 144.914 133.44 145.007 132.952 145C132.91 144.991 132.87 144.97 132.838 144.942C132.805 144.913 132.78 144.876 132.765 144.835C132.744 144.77 132.744 144.699 132.765 144.634C132.782 144.537 132.804 144.441 132.83 144.347L132.959 143.837C133.024 143.497 133.125 143.165 133.261 142.846C133.247 143.193 133.197 143.537 133.11 143.873L133.01 144.383C132.974 144.555 132.909 144.821 133.01 144.799C133.369 144.799 133.878 144.72 134.352 144.691L135.07 144.627L134.977 144.785C134.668 144.067 134.41 143.392 134.259 142.925C134.127 142.687 134.03 142.43 133.972 142.164Z" fill="#FD7401"/>
<path d="M109.387 202.598L141.231 201.629L155.088 255.723L152.539 317.772H135.702L137.763 257.044L125.449 219.385L127.344 320.178L110.328 320.429L108.54 225.689C108.461 223.054 107.599 217.116 107.923 214.503L109.387 202.598Z" fill="#263238"/>
<path d="M129.685 220.153C129.164 220.186 128.641 220.155 128.127 220.06C127.165 219.945 125.851 219.744 124.408 219.457C122.965 219.169 121.672 218.839 120.739 218.574C120.24 218.464 119.757 218.29 119.303 218.057C119.303 217.949 121.644 218.509 124.516 219.091C127.388 219.672 129.7 220.045 129.685 220.153Z" fill="#455A64"/>
<path d="M152.367 314.369C152.367 314.47 148.554 314.556 143.851 314.556C139.148 314.556 135.329 314.47 135.329 314.369C135.329 314.269 139.141 314.182 143.851 314.182C148.561 314.182 152.367 314.261 152.367 314.369Z" fill="#455A64"/>
<path d="M127.194 317.557C127.194 317.665 123.489 317.744 118.922 317.744C114.356 317.744 110.658 317.665 110.658 317.557C110.658 317.449 114.363 317.37 118.922 317.37C123.482 317.37 127.194 317.457 127.194 317.557Z" fill="#455A64"/>
<path d="M124.997 317.299C124.896 317.299 124.451 295.277 123.999 268.116C123.546 240.954 123.281 218.918 123.374 218.918C123.467 218.918 123.927 240.932 124.372 268.108C124.817 295.285 125.104 317.299 124.997 317.299Z" fill="#455A64"/>
<path d="M150.105 314.369C150.097 314.271 150.097 314.173 150.105 314.075V313.213C150.105 312.438 150.163 311.325 150.206 309.91C150.306 307.038 150.45 302.867 150.629 297.755C151.017 287.473 151.563 273.299 152.159 257.654C152.159 257.503 152.159 257.36 152.159 257.231V257.281C148.389 242.203 144.979 228.518 142.502 218.617L139.63 206.906C139.299 205.535 139.048 204.465 138.868 203.718C138.782 203.366 138.725 203.093 138.675 202.885C138.647 202.792 138.63 202.695 138.624 202.598C138.662 202.689 138.69 202.782 138.71 202.878C138.768 203.079 138.84 203.352 138.94 203.697C139.134 204.415 139.414 205.506 139.773 206.87C140.491 209.642 141.504 213.634 142.767 218.552C145.266 228.446 148.712 242.095 152.532 257.195V257.245C152.532 257.374 152.532 257.525 152.532 257.669C151.893 273.314 151.311 287.48 150.888 297.762C150.665 302.881 150.478 307.024 150.349 309.91C150.277 311.346 150.22 312.438 150.184 313.213C150.184 313.579 150.141 313.866 150.134 314.075C150.135 314.174 150.125 314.272 150.105 314.369Z" fill="#455A64"/>
<path d="M144.612 255.967C143.403 256.365 142.157 256.641 140.893 256.793C139.342 257.058 138.021 257.245 137.425 257.274V257.13C137.619 257.188 137.72 257.223 137.72 257.252C137.72 257.281 137.598 257.252 137.397 257.252H136.966L137.397 257.123C137.957 256.958 139.278 256.685 140.829 256.405C142.072 256.135 143.34 255.988 144.612 255.967Z" fill="#455A64"/>
<path d="M144.318 258.028C143.198 258.079 142.076 258.028 140.965 257.877C139.843 257.854 138.726 257.731 137.626 257.511C139.87 257.328 142.129 257.502 144.318 258.028Z" fill="#455A64"/>
<path opacity="0.2" d="M109.251 203.74C109.628 204.224 110.103 204.623 110.645 204.912C111.187 205.2 111.783 205.371 112.396 205.413C113.678 205.565 114.975 205.54 116.251 205.341C124.473 204.429 133.182 203.589 141.231 201.629C130.812 202.21 119.806 202.017 109.387 202.598L109.28 203.488" fill="black"/>
<g opacity="0.2">
<path d="M119.985 218.423L125.858 241.212L125.449 219.385L119.985 218.423Z" fill="black"/>
</g>
</svg>
